<?xml version="1.0" encoding="UTF-8"?>
<svg id="Layer_2" data-name="Layer 2" xmlns="http://www.w3.org/2000/svg" xmlns:xlink="http://www.w3.org/1999/xlink" viewBox="0 0 26.01 30.56">
  <defs>
    <style>
      .cls-1 {
        fill: url(#linear-gradient);
      }

      .cls-2 {
        fill: #fff;
      }

      .cls-3 {
        fill: #ff4583;
      }
    </style>
    <linearGradient id="linear-gradient" x1="3.76" y1="3.76" x2="22" y2="22" gradientUnits="userSpaceOnUse">
      <stop offset="0" stop-color="#03dae5"/>
      <stop offset="1" stop-color="#f0a"/>
    </linearGradient>
  </defs>
  <g id="OBJECTS">
    <circle class="cls-1" cx="13.01" cy="13.01" r="13.01"/>
    <g>
      <circle class="cls-3" cx="13.01" cy="26.01" r="4.55"/>
      <g>
        <path class="cls-2" d="M13.01,28.3c-.28,0-.5-.22-.5-.5v-3.57c0-.28.22-.5.5-.5s.5.22.5.5v3.57c0,.28-.22.5-.5.5Z"/>
        <path class="cls-2" d="M14.79,26.51h-3.57c-.28,0-.5-.22-.5-.5s.22-.5.5-.5h3.57c.28,0,.5.22.5.5s-.22.5-.5.5Z"/>
      </g>
    </g>
  </g>
</svg>