<?xml version="1.0" encoding="UTF-8"?>
<svg id="Layer_2" data-name="Layer 2" xmlns="http://www.w3.org/2000/svg" viewBox="0 0 20.04 19.32">
  <defs>
    <style>
      .cls-1 {
        fill: #fff;
      }
    </style>
  </defs>
  <g id="OBJECTS">
    <path class="cls-1" d="M10.02,0C4.49,0,0,3.82,0,8.53s4.49,8.53,10.02,8.53v1.53c0,.57.62.92,1.1.62,1.79-1.12,5.27-3.41,6.5-5.13,0,0,0,0,0-.01,1.5-1.49,2.41-3.42,2.41-5.54C20.04,3.82,15.55,0,10.02,0ZM5.15,10.51c-.93,0-1.69-.76-1.69-1.69s.76-1.69,1.69-1.69,1.69.76,1.69,1.69-.76,1.69-1.69,1.69ZM10.02,10.51c-.93,0-1.69-.76-1.69-1.69s.76-1.69,1.69-1.69,1.69.76,1.69,1.69-.76,1.69-1.69,1.69ZM14.89,10.51c-.93,0-1.69-.76-1.69-1.69s.76-1.69,1.69-1.69,1.69.76,1.69,1.69-.76,1.69-1.69,1.69Z"/>
  </g>
</svg>