<?xml version="1.0" encoding="UTF-8"?>
<svg id="Layer_2" data-name="Layer 2" xmlns="http://www.w3.org/2000/svg" viewBox="0 0 11.76 14.01">
  <defs>
    <style>
      .cls-1 {
        fill: #fff;
      }

      .cls-2 {
        opacity: .8;
      }
    </style>
  </defs>
  <g id="OBJECTS">
    <g class="cls-2">
      <path class="cls-1" d="M5.88,7.12c-1.96,0-3.56-1.6-3.56-3.56S3.92,0,5.88,0s3.56,1.6,3.56,3.56-1.6,3.56-3.56,3.56ZM5.88,1c-1.41,0-2.56,1.15-2.56,2.56s1.15,2.56,2.56,2.56,2.56-1.15,2.56-2.56-1.15-2.56-2.56-2.56Z"/>
      <path class="cls-1" d="M.5,14.01s-.05,0-.08,0c-.27-.04-.46-.3-.42-.57.47-3,2.94-5.18,5.87-5.18s5.41,2.18,5.87,5.18c.04.27-.14.53-.42.57-.27.04-.53-.14-.57-.42-.39-2.51-2.44-4.33-4.88-4.33S1.38,11.08.99,13.59c-.04.25-.25.42-.49.42Z"/>
    </g>
  </g>
</svg>