<?xml version="1.0" encoding="UTF-8"?>
<svg id="Layer_2" data-name="Layer 2" xmlns="http://www.w3.org/2000/svg" viewBox="0 0 11.42 11.42">
  <defs>
    <style>
      .cls-1 {
        fill: #fff;
      }

      .cls-2 {
        opacity: .8;
      }
    </style>
  </defs>
  <g id="OBJECTS">
    <g class="cls-2">
      <path class="cls-1" d="M5.01,10.03c-1.34,0-2.6-.52-3.55-1.47s-1.47-2.21-1.47-3.55S.52,2.42,1.47,1.47,3.68,0,5.01,0s2.6.52,3.55,1.47c.95.95,1.47,2.21,1.47,3.55s-.52,2.6-1.47,3.55c-.95.95-2.21,1.47-3.55,1.47ZM5.01,1c-1.07,0-2.08.42-2.84,1.18-.76.76-1.18,1.77-1.18,2.84s.42,2.08,1.18,2.84c.76.76,1.77,1.18,2.84,1.18s2.08-.42,2.84-1.18c.76-.76,1.18-1.77,1.18-2.84s-.42-2.08-1.18-2.84c-.76-.76-1.77-1.18-2.84-1.18Z"/>
      <path class="cls-1" d="M10.92,11.42c-.13,0-.26-.05-.35-.15l-2.71-2.71c-.2-.2-.2-.51,0-.71s.51-.2.71,0l2.71,2.71c.2.2.2.51,0,.71-.1.1-.23.15-.35.15Z"/>
    </g>
  </g>
</svg>